<?xml version="1.0" encoding="UTF-8"?>
<svg id="Warstwa_1" data-name="Warstwa 1" xmlns="http://www.w3.org/2000/svg" viewBox="0 0 499 266">
  <defs>
    <style>
      .cls-1 {
        fill: #838383;
      }

      .cls-2 {
        fill: #fff;
      }

      .cls-3 {
        fill: #4af860;
      }

      .cls-4 {
        fill: #015031;
      }

      .cls-5 {
        fill: #47f860;
      }
    </style>
  </defs>
  <g>
    <path class="cls-1" d="M244.36,160.04c-3.6-14.54-7.73-31.21-11.89-47.89-12.18,9.21-23.86,18.5-34.98,27.73,2.42,9.17,5.02,19.03,7.67,29.07h41.42c-.72-2.89-1.46-5.86-2.23-8.9ZM221.1,229.18c3.04,11.5,5.64,21.37,7.47,28.33,1.03,7.03,8.88,8.41,14.97,8.24,8.37.04,18.66.04,27.8-.02,11.09.05,13.39-2.65,15.96-13.02,1.92-6.57,4.15-14.47,6.28-22.03.14-.5.28-1,.42-1.5h-72.91ZM487.44,170.86l-.14-.18c-2.32-2.92-5.07-5.65-8.06-8.01-4.04-3.29-9.12-6.27-12.04-8.39-1.07-.85-2.43-1.83-2.63-3.21-.04-2.28,1.6-3.42,3.61-5.25,2.09-1.75,4.37-3.36,6.51-5.09,23.55-17.76,25.53-56.04,5.44-77.13-22.29-23.7-56.22-21.56-86.2-21.6-17.14-.07-34.37-.13-51.56-.08-17.67,9.19-34.83,19.14-51.38,29.59-6.09,26.52-13.15,57.19-19.15,83.27-1.11,4.8-2.2,9.54-3.27,14.16h42.18c7.94-28.52,15.87-56.79,23.75-84.82,1.67-6.76,4.52-5.91,11.3-5.88,4-.01,7.83,0,12.59,0,18.88.05,31.34-.06,46.2.03,9.87.12,20.46.13,29.05,4.77,19.88,9.88,17.8,41.58-3.67,48.17-10.37,3.66-21.53,2.98-32.21,3.11-9.29,0-23.03.02-33.64,0-5.1,0-11.56,0-16.03.02-4.07.01-5.87.08-6.97,2.03-2.65,6.3-4.65,16.28-6.87,23.44-.81,2.97-1.73,6.04-2.55,9.12h52.34c1.3-.04,2.62-.02,3.89,0,.68.02,1.34.03,1.98.03s1.2-.01,1.76-.03c16.29.53,34.18-2.36,48.6,6.64,14.7,9.37,17.06,33.1,3.83,44.71l-.18.16c-10.31,8.83-23.56,8.72-37.2,8.72-6.57-.13-13.4.19-20.05.01h-66.03c-3.26.73-6.43,1.85-7.53,7.05-1.74,6.07-4.68,16.77-6.33,22.74-.38,1.71-1.03,3.47-.77,5.09.45,1.81,2.58,1.6,4.18,1.74,12.26,0,33.07.08,46.23.04,12.73-.02,25.86-.1,38.64-.1,32.93.43,72.98,2.31,94.08-27.8,13.67-19.61,13.12-48.4-1.71-67.08ZM120.82,210l1.44-1.45c-.48.47-.96.95-1.44,1.44h0Z"/>
    <path class="cls-5" d="M477.57,1.33c-27.77.28-80.53,16.34-88.63,18.86h-.01c-.34.11-.6.19-.78.24-.06.02-.11.04-.17.06-.04.01-.07.02-.11.03-17.84,6.1-35.34,13.33-52.4,21.42-14.62,6.93-28.91,14.49-42.82,22.51-21.71,12.5-42.47,26.12-62.04,40.16-12.27,8.8-24.06,17.78-35.33,26.76-5.97,4.76-11.8,9.53-17.47,14.27-19.41,16.24-36.97,32.21-52.31,46.96-3.2,3.08-6.3,6.12-9.31,9.05-12.69,12.5-23.6,23.87-32.49,33.47-15.95,17.2-25.41,28.68-26.97,30.58-.11.15-36.74.23-52.49.26t-.01.02H.79c-.65,0-1.02-.65-.62-1.08,25.01-27.89,49.92-52.84,74.52-75.19-14.55-53.93-31.29-119.25-37.66-142.42-.86-5.22,5.66-5.01,9.79-5.25,8.4-.08,17.58-.13,26.09.03,9.41-.29,12.28,5.56,13.68,13.74,3.45,15.14,7.21,31.54,11.37,50,3.97,17.63,8.06,35.67,12.09,53.35,11.71-9.63,23.32-18.65,34.8-27.16,8.74-33.73,17.77-68.37,22.66-84.91,2.99-5.54,11.24-4.99,16.87-5.11,6.63,0,13.85,0,20.18,0,10.58-.22,15.47,2.28,17.18,12.66,1.82,7.21,3.81,15.2,5.92,23.63,31.73-17.81,61.77-31.62,89.51-42.31,49.09-18.87,90.92-28.03,121.91-32.39C454.83,1.38,467.77.39,477.44,0c1.03-.05,1.14,1.22.13,1.33Z"/>
    <path class="cls-2" d="M389.29,20.04c-.12.05-.23.1-.35.15h-.01c-.34.11-.6.19-.78.24l1.14-.39Z"/>
    <path class="cls-1" d="M173.86,160.11c-9.99,36.44-21.02,77.13-27.49,98.99-2.38,6.13-9.81,6.82-15.61,6.75-6.66.08-14.38.1-21.2.13-4.94,0-14.17.44-17.01-2.34-1.52-4.2-3.48-10.34-5.75-17.94,1.07-1.17,2.18-2.39,3.32-3.63,1.08-1.17,2.19-2.38,3.33-3.61,1.88-2.03,3.84-4.13,5.89-6.29.66-.7,1.32-1.41,2-2.12,5.1-5.39,10.71-11.19,16.76-17.32l1.05-1.05,1.67-1.67,1.44-1.45c.93-.92,1.86-1.86,2.81-2.8.94-.93,1.9-1.88,2.86-2.83,1.93-1.91,3.9-3.83,5.9-5.78,1-.97,2.02-1.96,3.04-2.94,3.85-3.71,7.83-7.51,11.96-11.36,1.12-1.05,2.26-2.11,3.4-3.17,2.26-2.1,4.55-4.22,6.88-6.34,4.76-4.35,9.67-8.76,14.74-13.21Z"/>
    <path class="cls-4" d="M159.12,173.32c-2.33,2.13-4.62,4.25-6.88,6.34,2.25-2.1,4.55-4.22,6.88-6.34Z"/>
  </g>
  <g>
    <path class="cls-3" d="M204.15,219.11v-42.04c0-.75.27-1.4.8-1.94.53-.53,1.17-.8,1.93-.8h3.46c.75,0,1.4.27,1.93.8.53.54.8,1.18.8,1.94v42.04c0,.76-.27,1.4-.8,1.94-.53.53-1.17.8-1.93.8h-3.46c-.76,0-1.4-.27-1.93-.8-.53-.54-.8-1.18-.8-1.94Z"/>
    <path class="cls-3" d="M221.84,219.11v-28.3c0-.75.27-1.4.8-1.93.53-.54,1.17-.8,1.93-.8h2.66c.75,0,1.4.27,1.93.8.53.53.82,1.18.87,1.93v.6c2.31-2.76,5.39-4.14,9.25-4.14,7.71,0,11.57,3.82,11.57,11.48v20.36c0,.76-.27,1.4-.8,1.94s-1.17.8-1.93.8h-2.66c-.76,0-1.4-.27-1.93-.8-.53-.54-.8-1.18-.8-1.94v-17.89c0-1.69-.44-3.12-1.33-4.31-.89-1.18-2.31-1.77-4.25-1.77-2.09,0-3.81.74-5.16,2.23-1.35,1.49-2.03,3.7-2.03,6.64v15.08c0,.76-.27,1.4-.8,1.94-.53.53-1.17.8-1.93.8h-2.66c-.75,0-1.4-.27-1.93-.8s-.8-1.18-.8-1.94Z"/>
    <path class="cls-3" d="M257.42,198.08c0-6.94,2.07-12.83,6.22-17.68,4.15-4.85,9.64-7.27,16.46-7.27,4.44,0,8.23,1.04,11.38,3.13,3.15,2.09,5.43,5.17,6.85,9.21.27.67.22,1.34-.13,2-.36.67-.89,1.09-1.6,1.27l-3.06.73c-1.82.49-3.06-.13-3.73-1.87-.75-1.91-2-3.42-3.76-4.54-1.75-1.11-3.74-1.67-5.95-1.67-4.39,0-7.71,1.64-9.98,4.91s-3.39,7.2-3.39,11.78,1.13,8.51,3.39,11.78c2.26,3.27,5.59,4.9,9.98,4.9,4.75,0,8.23-2.36,10.45-7.07.8-1.6,2.01-2.05,3.65-1.34l3.06,1.47c.71.31,1.19.81,1.43,1.5s.19,1.39-.17,2.1c-3.81,7.74-9.95,11.61-18.43,11.61-7.23,0-12.81-2.38-16.76-7.14-3.95-4.76-5.92-10.7-5.92-17.82Z"/>
    <path class="cls-3" d="M306.88,217.71c-3.08-3.29-4.62-7.54-4.62-12.75s1.54-9.46,4.62-12.75,7.29-4.94,12.61-4.94,9.52,1.65,12.6,4.94c3.09,3.29,4.62,7.54,4.62,12.75s-1.54,9.46-4.62,12.75c-3.08,3.29-7.28,4.94-12.6,4.94s-9.53-1.65-12.61-4.94ZM313.03,197.72c-1.51,1.98-2.26,4.39-2.26,7.24s.75,5.26,2.26,7.24c1.5,1.98,3.66,2.97,6.45,2.97s4.94-.99,6.45-2.97c1.5-1.98,2.26-4.39,2.26-7.24s-.75-5.26-2.26-7.24c-1.51-1.98-3.66-2.97-6.45-2.97s-4.95.99-6.45,2.97Z"/>
    <path class="cls-3" d="M355.06,222.64c-4.3,0-7.81-1.7-10.54-5.11-2.73-3.4-4.09-7.59-4.09-12.58s1.36-9.17,4.09-12.58c2.73-3.41,6.24-5.11,10.54-5.11,3.82,0,7.01,1.22,9.58,3.67v-13.88c0-.75.27-1.4.8-1.94.54-.53,1.17-.8,1.93-.8h2.66c.75,0,1.4.27,1.93.8.53.54.8,1.18.8,1.94v42.04c0,.76-.27,1.4-.8,1.94-.54.53-1.18.8-1.93.8h-2.66c-.76,0-1.39-.27-1.9-.8-.51-.54-.78-1.18-.83-1.94v-.53h-.14c-2.39,2.72-5.54,4.07-9.45,4.07ZM350.84,212.2c1.27,1.98,3.29,2.97,6.08,2.97s4.82-.99,6.09-2.97c1.26-1.98,1.89-4.39,1.89-7.24s-.63-5.26-1.89-7.24c-1.27-1.98-3.29-2.97-6.09-2.97s-4.82.99-6.08,2.97c-1.26,1.98-1.89,4.39-1.89,7.24s.63,5.26,1.89,7.24Z"/>
    <path class="cls-3" d="M383.23,217.71c-3.08-3.29-4.62-7.54-4.62-12.75s1.54-9.46,4.62-12.75,7.29-4.94,12.61-4.94,8.91,1.44,11.57,4.34c2.66,2.89,4.12,6.96,4.39,12.21.04.76-.19,1.46-.7,2.1-.51.65-1.23.97-2.17.97h-21.81c.09,2.45,1,4.44,2.73,5.97,1.73,1.54,3.72,2.3,5.99,2.3,3.19,0,5.83-.91,7.91-2.74.84-.8,1.49-1.23,1.96-1.3.47-.07,1.32.21,2.57.83l1.93,1.14c.62.36.99.89,1.1,1.6.11.71-.08,1.34-.57,1.87-3.55,4.05-8.51,6.07-14.9,6.07-5.32,0-9.53-1.65-12.61-4.94ZM387.13,200.62h16.36c0-1.29-.68-2.72-2.03-4.3s-3.23-2.37-5.62-2.37-4.23.62-5.75,1.87c-1.53,1.24-2.52,2.85-2.96,4.8Z"/>
  </g>
</svg>